<svg width="16" height="16" viewBox="0 0 16 16" fill="none" xmlns="http://www.w3.org/2000/svg">
<path d="M10.475 8.85002C9.77495 9.37502 8.92495 9.67502 7.99995 9.67502C7.07495 9.67502 6.22495 9.37502 5.52495 8.85002C3.17495 9.00002 1.32495 10.6 1.32495 13C1.32495 13 4.22495 13.825 7.99995 13.825C11.775 13.825 14.675 13 14.675 13C14.675 10.6 12.825 9.00002 10.475 8.85002ZM7.99995 8.85002C9.84995 8.85002 11.35 7.35002 11.35 5.50002C11.35 5.27502 11.325 5.07502 11.3 4.85002H11.325C11 3.32502 9.64995 2.15002 8.02495 2.15002C6.77495 2.15002 5.62495 2.82502 5.09995 3.87502C4.82495 4.35002 4.67495 4.92502 4.67495 5.50002C4.64995 7.35002 6.14995 8.85002 7.99995 8.85002Z" fill="#74767A"/>
</svg>
